HIERARCHY
ROOT Hips
{
  OFFSET 0 0 0
  CHANNELS 6 Xposition Yposition Zposition Zrotation Yrotation Xrotation
  JOINT LeftThigh
  {
    OFFSET 8.409438 0 -5.917753
    CHANNELS 3 Zrotation Yrotation Xrotation
    JOINT LeftLeg
    {
      OFFSET 0 0 -42.358652
      CHANNELS 3 Zrotation Yrotation Xrotation
      JOINT LeftFoot
      {
        OFFSET 0 0 -39.357303
        CHANNELS 3 Zrotation Yrotation Xrotation
      }
    }
  }
  JOINT RightThigh
  {
    OFFSET -8.409438 0 -5.917753
    CHANNELS 3 Zrotation Yrotation Xrotation
    JOINT RightLeg
    {
      OFFSET 0 0 -42.358652
      CHANNELS 3 Zrotation Yrotation Xrotation
      JOINT RightFoot
      {
        OFFSET 0 0 -39.357303
        CHANNELS 3 Zrotation Yrotation Xrotation
      }
    }
  }
  JOINT SpineLow
  {
    OFFSET 0 0 4.719101
    CHANNELS 3 Zrotation Yrotation Xrotation
    JOINT SpineMid
    {
      OFFSET 0 0 12.899191
      CHANNELS 3 Zrotation Yrotation Xrotation
      JOINT Chest
      {
        OFFSET 0 0 12.899191
        CHANNELS 3 Zrotation Yrotation Xrotation
        JOINT LeftShoulder
        {
          OFFSET 7.550562 1.41573 9.438202
          CHANNELS 3 Zrotation Yrotation Xrotation
          JOINT LeftArm
          {
            OFFSET 9.155056 0 4.247191
            CHANNELS 3 Zrotation Yrotation Xrotation
            JOINT LeftForearm
            {
              OFFSET 0 0 25.771955
              CHANNELS 3 Zrotation Yrotation Xrotation
              JOINT LeftHand
              {
                OFFSET 0 0 25.197169
                CHANNELS 3 Zrotation Yrotation Xrotation
              }
            }
          }
        }
        JOINT RightShoulder
        {
          OFFSET -7.550562 1.41573 9.438202
          CHANNELS 3 Zrotation Yrotation Xrotation
          JOINT RightArm
          {
            OFFSET -9.155056 0 4.247191
            CHANNELS 3 Zrotation Yrotation Xrotation
            JOINT RightForearm
            {
              OFFSET 0 0 -25.771955
              CHANNELS 3 Zrotation Yrotation Xrotation
              JOINT RightHand
              {
                OFFSET 0 0 -25.197169
                CHANNELS 3 Zrotation Yrotation Xrotation
              }
            }
          }
        }
        JOINT Neck
        {
          OFFSET 0 0 15.101124
          CHANNELS 3 Zrotation Yrotation Xrotation
          JOINT Head
          {
            OFFSET 0 0 11.325843
            CHANNELS 3 Zrotation Yrotation Xrotation
            End Site
            {
              OFFSET 0 0 14.157303
            }
          }
        }
      }
    }
  }
}
MOTION
Frames: 8
Frame Time: 0.0
0.0  101.685394  0.0  -3.929138  -19.593078  -96.239342  50.600085  -21.352699  -26.080722  -35.815329  21.679534  33.19876  3.773421  3.095601  3.15846  -3.281633  -2.229961  25.783069  -10.159591  10.399377  -4.581645  21.919431  15.195084  3.431946  -0.600196  -0.934095  1.67068  -1.704965  -2.510205  4.591542  -1.704965  -2.510205  4.591542  -6.944445  26.382131  -2.879624  -172.089739  71.34397  -125.993222  -37.960885  -34.257375  81.295695  21.82097  -38.574811  23.741818  1.282614  -0.836634  15.479799  86.219214  27.959139  29.30515  -11.514914  24.073846  -104.098308  79.381238  17.198414  36.987605  9.554311  -1.814014  -0.035396  7.16503  -1.361458  0.001827  
0.0  101.685394  0.0  -3.578875  -19.076493  -96.453624  50.477638  -21.031071  -25.654515  -36.069772  21.419887  32.714554  3.591184  2.87342  3.246483  -2.897892  -3.127799  25.511774  -10.9342  11.090002  -4.355137  21.360464  14.960993  3.495007  -0.733799  -0.952949  1.673479  -2.071559  -2.552296  4.604843  -2.071559  -2.552296  4.604843  -6.677146  26.521025  -2.750567  -173.740718  70.975203  -127.758012  -38.318011  -33.959381  81.395714  21.8361  -38.485411  24.470539  1.59255  -0.572871  15.487096  86.294403  28.547356  29.473162  -11.384145  23.831615  -104.086677  79.425731  16.855005  37.141446  9.782408  -1.552215  0.248789  7.336991  -1.160531  0.211499  
0.0  101.685394  0.0  -3.381915  -18.854509  -96.607155  50.616822  -20.871078  -25.337868  -36.368531  21.251288  32.066573  3.608822  2.685017  3.452891  -2.522056  -3.900333  25.242312  -11.538883  11.616725  -4.111146  21.070366  15.100946  3.585991  -0.812578  -0.989571  1.667389  -2.289251  -2.647029  4.59258  -2.289251  -2.647029  4.59258  -6.213203  26.680697  -2.552255  -175.629576  70.626217  -129.682417  -38.671938  -33.626989  81.662126  21.844465  -38.515862  25.211742  1.92774  -0.341636  15.599435  86.367044  29.207431  29.607448  -11.292752  23.527729  -104.076397  79.471646  16.550546  37.245084  9.96878  -1.297224  0.474864  7.477278  -0.965477  0.377418  
0.0  101.685394  0.0  -3.090581  -18.844513  -96.80407  50.771634  -20.759928  -24.932942  -36.433338  21.058836  31.443133  3.430027  2.560375  3.634602  -2.349385  -4.109421  24.968776  -11.802345  11.84859  -3.826152  20.898567  15.307839  3.676797  -0.865756  -1.006138  1.649825  -2.435077  -2.689225  4.547317  -2.435078  -2.689225  4.547317  -5.819907  26.734496  -2.313977  -177.487934  70.227766  -131.531119  -39.044057  -33.53306  81.856291  21.825249  -38.598634  25.929469  2.246411  -0.187541  15.803192  86.486625  29.981915  29.75957  -11.104421  23.130953  -104.094494  79.51272  16.339732  37.299971  10.175366  -1.056557  0.664696  7.632468  -0.781608  0.516274  
0.0  101.685394  0.0  -2.852187  -18.870811  -96.936183  50.807319  -20.712928  -24.567638  -36.290766  20.906762  30.887512  3.306435  2.440886  3.820505  -2.628078  -3.813819  24.682263  -11.618767  11.852999  -3.540692  20.883407  15.489471  3.733314  -0.9014  -1.02674  1.645071  -2.533771  -2.743218  4.536609  -2.533771  -2.743218  4.536609  -5.476805  26.807629  -2.171471  -179.074115  69.893019  -133.210421  -39.460305  -33.369908  82.200861  21.71604  -38.68769  26.647176  2.570631  0.002953  16.000208  86.65579  30.901442  29.852559  -10.997211  22.65275  -104.148609  79.526263  16.187655  37.35678  10.327819  -0.825237  0.708041  7.746698  -0.607167  0.545155  
0.0  101.685394  0.0  -2.552969  -19.029471  -97.129887  50.740984  -20.752268  -24.159999  -36.02625  20.815049  30.328377  3.217458  2.420012  4.021209  -3.2053  -3.020895  24.495132  -10.780273  11.791632  -2.922433  20.443906  15.540709  3.37913  -0.906617  -1.022546  1.659406  -2.548318  -2.73084  4.575843  -2.548318  -2.73084  4.575843  -5.550991  26.659662  -2.099268  179.709368  69.512786  -134.362461  -39.858392  -33.559564  82.284405  21.545493  -38.739648  27.301577  2.638275  -0.036317  16.04389  87.122107  31.82738  30.142721  -10.880604  22.114893  -104.258472  79.498362  16.042557  37.447313  10.333678  -0.615223  0.547092  7.750741  -0.452319  0.420863  
0.0  101.685394  0.0  -2.3258  -19.100301  -97.25544  50.560715  -20.841209  -23.805266  -35.649211  20.807178  29.862998  3.10125  2.328525  4.127892  -4.141672  -2.086299  24.318436  -10.013421  11.517281  -2.707169  20.652937  15.673361  3.38256  -0.887668  -1.022938  1.669651  -2.496968  -2.732834  4.603101  -2.496968  -2.732834  4.603101  -5.603648  26.627328  -1.966082  178.801508  69.296028  -135.384153  -40.293581  -33.461621  82.594101  21.322128  -38.763106  27.925344  2.709468  -0.049217  16.254558  87.468219  32.931827  30.294214  -10.920194  21.521798  -104.385775  79.465598  15.883252  37.561422  10.288806  -0.491416  0.444636  7.71692  -0.361197  0.341864  
0.0  101.685394  0.0  -2.038046  -19.161425  -97.441416  50.267266  -20.930618  -23.393617  -35.442698  20.898379  29.265006  3.24158  2.328249  4.337185  -4.741795  -0.650277  24.298686  -9.347154  10.742519  -2.457996  20.704671  15.793825  3.270061  -0.931935  -1.00729  1.669574  -2.616834  -2.686998  4.604006  -2.616834  -2.686998  4.604007  -5.22374  26.640701  -1.666484  177.920168  69.119983  -136.093488  -40.655905  -33.566769  82.719687  21.029654  -38.783211  28.50226  3.046694  -0.138967  16.520192  86.257091  34.773684  29.626491  -9.385783  20.939112  -104.607377  79.471337  15.706897  37.698234  10.375127  -0.392085  0.353379  7.781543  -0.288162  0.271784  
